<svg xmlns="http://www.w3.org/2000/svg" viewBox="0 0 32 32"
		 null
		 aria-hidden="true" ><defs><clipPath id="a"><path d="M0 0h32v32H0z" data-name="Rectangle 646" style="fill: currentColor"/></clipPath></defs><path d="M17.143.64A.64.64 0 0 0 16.5 0h-1a.64.64 0 0 0-.64.64v6.188a.64.64 0 0
  1-1.233.24L11.306 1.33a.64.64 0 0 0-.833-.354l-.932.377a.64.64 0 0 0-.354.833L11.658
  8.3a.64.64 0 0 1-1.046.7L5.947 4.331a.64.64 0 0 0-.905 0l-.711.711a.64.64 0 0 0 0
  .905l4.189 4.189a.64.64 0 0 1-.709 1.039L2.382 8.8a.64.64 0 0 0-.843.33l-.4.922a.64.64 0
  0 0 .33.843l6.255 2.733a.64.64 0 0 1-.256 1.226H.64A.64.64 0 0 0 0 15.5v1a.64.64 0 0 0
  .64.64h6.826a.64.64 0 0 1 .256 1.226L1.467 21.1a.64.64 0 0 0-.33.843l.4.922a.64.64 0 0 0
  .843.33l5.429-2.372a.64.64 0 0 1 .709 1.039l-4.187 4.191a.64.64 0 0 0 0
  .905l.711.711a.64.64 0 0 0 .905 0L10.612 23a.64.64 0 0 1 1.046.692l-2.472 6.121a.64.64 0
  0 0 .354.833l.932.377a.64.64 0 0 0 .833-.354l2.318-5.737a.64.64 0 0 1
  1.233.24v6.188a.64.64 0 0 0 .64.64H16.5a.64.64 0 0 0 .64-.64v-6.188a.64.64 0 0 1
  1.233-.24l2.318 5.737a.64.64 0 0 0 .833.354l.932-.377a.64.64 0 0 0 .354-.833L20.342
  23.7a.64.64 0 0 1 1.046-.7l4.665 4.665a.64.64 0 0 0 .905 0l.711-.711a.64.64 0 0 0
  0-.905l-4.189-4.185a.64.64 0 0 1 .709-1.039l5.429 2.375a.64.64 0 0 0
  .843-.33l.4-.922a.64.64 0 0 0-.33-.843l-6.255-2.733a.64.64 0 0 1 .256-1.226h6.828A.64.64
  0 0 0 32 16.5v-1a.64.64 0 0 0-.64-.64h-6.826a.64.64 0 0 1-.256-1.226l6.255-2.734a.64.64
  0 0 0 .33-.843l-.4-.922a.64.64 0 0 0-.843-.33l-5.428 2.372a.64.64 0 0
  1-.709-1.039l4.189-4.189a.64.64 0 0 0 0-.905l-.711-.711a.64.64 0 0 0-.905 0L21.388
  9a.64.64 0 0 1-1.046-.7l2.471-6.117a.64.64 0 0 0-.354-.833l-.931-.373a.64.64 0 0
  0-.833.354l-2.319 5.737a.64.64 0 0 1-1.233-.24z" data-name="Path 481" style="fill: currentColor; fill-rule: evenodd"/></svg>